<svg width="2229" height="1847" xmlns="http://www.w3.org/2000/svg" xmlns:xlink="http://www.w3.org/1999/xlink" overflow="hidden"><defs><clipPath id="clip0"><rect x="377" y="353" width="2229" height="1847"/></clipPath><clipPath id="clip1"><rect x="377" y="453" width="2229" height="1747"/></clipPath><clipPath id="clip2"><rect x="377" y="453" width="2229" height="1747"/></clipPath></defs><g clip-path="url(#clip0)" transform="translate(-377 -353)"><g clip-path="url(#clip1)"><g clip-path="url(#clip2)"><path d="M4274.45 2032.41C4583.79 2032.41 4583.79 1541.56 4893.12 1541.56" stroke="#505050" stroke-width="2.55649" fill="none" transform="matrix(1.00002 0 0 1 -3721.81 -962.698)"/><path d="M4274.45 2032.41C4583.79 2032.41 4583.79 1786.99 4893.12 1786.99" stroke="#505050" stroke-width="2.55649" fill="none" transform="matrix(1.00002 0 0 1 -3721.81 -962.698)"/><path d="M4274.45 2032.41C4583.79 2032.41 4583.79 2032.41 4893.12 2032.41" stroke="#505050" stroke-width="2.55649" fill="none" transform="matrix(1.00002 0 0 1 -3721.81 -962.698)"/><path d="M4274.45 2032.41C4583.79 2032.41 4583.79 2277.83 4893.12 2277.83" stroke="#505050" stroke-width="2.55649" fill="none" transform="matrix(1.00002 0 0 1 -3721.81 -962.698)"/><path d="M4274.45 2032.41C4583.79 2032.41 4583.79 2523.26 4893.12 2523.26" stroke="#505050" stroke-width="2.55649" fill="none" transform="matrix(1.00002 0 0 1 -3721.81 -962.698)"/><path d="M4274.45 2277.83C4583.79 2277.83 4583.79 1541.56 4893.12 1541.56" stroke="#505050" stroke-width="2.55649" fill="none" transform="matrix(1.00002 0 0 1 -3721.81 -962.698)"/><path d="M4274.45 2277.83C4583.79 2277.83 4583.79 1786.99 4893.12 1786.99" stroke="#505050" stroke-width="2.55649" fill="none" transform="matrix(1.00002 0 0 1 -3721.81 -962.698)"/><path d="M4274.45 2277.83C4583.79 2277.83 4583.79 2032.41 4893.12 2032.41" stroke="#505050" stroke-width="2.55649" fill="none" transform="matrix(1.00002 0 0 1 -3721.81 -962.698)"/><path d="M4274.45 2277.83C4583.79 2277.83 4583.79 2277.83 4893.12 2277.83" stroke="#505050" stroke-width="2.55649" fill="none" transform="matrix(1.00002 0 0 1 -3721.81 -962.698)"/><path d="M4274.45 2277.83C4583.79 2277.83 4583.79 2523.26 4893.12 2523.26" stroke="#505050" stroke-width="2.55649" fill="none" transform="matrix(1.00002 0 0 1 -3721.81 -962.698)"/><path d="M4274.45 2523.26C4583.79 2523.26 4583.79 1541.56 4893.12 1541.56" stroke="#505050" stroke-width="2.55649" fill="none" transform="matrix(1.00002 0 0 1 -3721.81 -962.698)"/><path d="M4274.45 2523.26C4583.79 2523.26 4583.79 1786.99 4893.12 1786.99" stroke="#505050" stroke-width="2.55649" fill="none" transform="matrix(1.00002 0 0 1 -3721.81 -962.698)"/><path d="M4274.45 2523.26C4583.79 2523.26 4583.79 2032.41 4893.12 2032.41" stroke="#505050" stroke-width="2.55649" fill="none" transform="matrix(1.00002 0 0 1 -3721.81 -962.698)"/><path d="M4274.45 2523.26C4583.79 2523.26 4583.79 2277.83 4893.12 2277.83" stroke="#505050" stroke-width="2.55649" fill="none" transform="matrix(1.00002 0 0 1 -3721.81 -962.698)"/><path d="M4274.45 2523.26C4583.79 2523.26 4583.79 2523.26 4893.12 2523.26" stroke="#505050" stroke-width="2.55649" fill="none" transform="matrix(1.00002 0 0 1 -3721.81 -962.698)"/><path d="M4893.12 1541.56C5202.46 1541.56 5202.46 1541.56 5511.79 1541.56" stroke="#505050" stroke-width="2.55649" fill="none" transform="matrix(1.00002 0 0 1 -3721.81 -962.698)"/><path d="M4893.12 1541.56C5202.46 1541.56 5202.46 1786.99 5511.79 1786.99" stroke="#505050" stroke-width="2.55649" fill="none" transform="matrix(1.00002 0 0 1 -3721.81 -962.698)"/><path d="M4893.12 1541.56C5202.46 1541.56 5202.46 2032.41 5511.79 2032.41" stroke="#505050" stroke-width="2.55649" fill="none" transform="matrix(1.00002 0 0 1 -3721.81 -962.698)"/><path d="M4893.12 1541.56C5202.46 1541.56 5202.46 2277.83 5511.79 2277.83" stroke="#505050" stroke-width="2.55649" fill="none" transform="matrix(1.00002 0 0 1 -3721.81 -962.698)"/><path d="M4893.12 1541.56C5202.46 1541.56 5202.46 2523.26 5511.79 2523.26" stroke="#505050" stroke-width="2.55649" fill="none" transform="matrix(1.00002 0 0 1 -3721.81 -962.698)"/><path d="M4893.12 1541.56C5202.46 1541.56 5202.46 2768.68 5511.79 2768.68" stroke="#505050" stroke-width="2.55649" fill="none" transform="matrix(1.00002 0 0 1 -3721.81 -962.698)"/><path d="M4893.12 1541.56C5202.46 1541.56 5202.46 3014.1 5511.79 3014.1" stroke="#505050" stroke-width="2.55649" fill="none" transform="matrix(1.00002 0 0 1 -3721.81 -962.698)"/><path d="M4893.12 1786.99C5202.46 1786.99 5202.46 1541.56 5511.79 1541.56" stroke="#505050" stroke-width="2.55649" fill="none" transform="matrix(1.00002 0 0 1 -3721.81 -962.698)"/><path d="M4893.12 1786.99C5202.46 1786.99 5202.46 1786.99 5511.79 1786.99" stroke="#505050" stroke-width="2.55649" fill="none" transform="matrix(1.00002 0 0 1 -3721.81 -962.698)"/><path d="M4893.12 1786.99C5202.46 1786.99 5202.46 2032.41 5511.79 2032.41" stroke="#505050" stroke-width="2.55649" fill="none" transform="matrix(1.00002 0 0 1 -3721.81 -962.698)"/><path d="M4893.12 1786.99C5202.46 1786.99 5202.46 2277.83 5511.79 2277.83" stroke="#505050" stroke-width="2.55649" fill="none" transform="matrix(1.00002 0 0 1 -3721.81 -962.698)"/><path d="M4893.12 1786.99C5202.46 1786.99 5202.46 2523.26 5511.79 2523.26" stroke="#505050" stroke-width="2.55649" fill="none" transform="matrix(1.00002 0 0 1 -3721.81 -962.698)"/><path d="M4893.12 1786.99C5202.46 1786.99 5202.46 2768.68 5511.79 2768.68" stroke="#505050" stroke-width="2.55649" fill="none" transform="matrix(1.00002 0 0 1 -3721.81 -962.698)"/><path d="M4893.12 1786.99C5202.46 1786.99 5202.46 3014.1 5511.79 3014.1" stroke="#505050" stroke-width="2.55649" fill="none" transform="matrix(1.00002 0 0 1 -3721.81 -962.698)"/><path d="M4893.12 2032.41C5202.46 2032.41 5202.46 1541.56 5511.79 1541.56" stroke="#505050" stroke-width="2.55649" fill="none" transform="matrix(1.00002 0 0 1 -3721.81 -962.698)"/><path d="M4893.12 2032.41C5202.46 2032.41 5202.46 1786.99 5511.79 1786.99" stroke="#505050" stroke-width="2.55649" fill="none" transform="matrix(1.00002 0 0 1 -3721.81 -962.698)"/><path d="M4893.12 2032.41C5202.46 2032.41 5202.46 2032.41 5511.79 2032.41" stroke="#505050" stroke-width="2.55649" fill="none" transform="matrix(1.00002 0 0 1 -3721.81 -962.698)"/><path d="M4893.12 2032.41C5202.46 2032.41 5202.46 2277.83 5511.79 2277.83" stroke="#505050" stroke-width="2.55649" fill="none" transform="matrix(1.00002 0 0 1 -3721.81 -962.698)"/><path d="M4893.12 2032.41C5202.46 2032.41 5202.46 2523.26 5511.79 2523.26" stroke="#505050" stroke-width="2.55649" fill="none" transform="matrix(1.00002 0 0 1 -3721.81 -962.698)"/><path d="M4893.12 2032.41C5202.46 2032.41 5202.46 2768.68 5511.79 2768.68" stroke="#505050" stroke-width="2.55649" fill="none" transform="matrix(1.00002 0 0 1 -3721.81 -962.698)"/><path d="M4893.12 2032.41C5202.46 2032.41 5202.46 3014.1 5511.79 3014.1" stroke="#505050" stroke-width="2.55649" fill="none" transform="matrix(1.00002 0 0 1 -3721.81 -962.698)"/><path d="M4893.12 2277.83C5202.46 2277.83 5202.46 1541.56 5511.79 1541.56" stroke="#505050" stroke-width="2.55649" fill="none" transform="matrix(1.00002 0 0 1 -3721.81 -962.698)"/><path d="M4893.12 2277.83C5202.46 2277.83 5202.46 1786.99 5511.79 1786.99" stroke="#505050" stroke-width="2.55649" fill="none" transform="matrix(1.00002 0 0 1 -3721.81 -962.698)"/><path d="M4893.12 2277.83C5202.46 2277.83 5202.46 2032.41 5511.79 2032.41" stroke="#505050" stroke-width="2.55649" fill="none" transform="matrix(1.00002 0 0 1 -3721.81 -962.698)"/><path d="M4893.12 2277.83C5202.46 2277.83 5202.46 2277.83 5511.79 2277.83" stroke="#505050" stroke-width="2.55649" fill="none" transform="matrix(1.00002 0 0 1 -3721.81 -962.698)"/><path d="M4893.12 2277.83C5202.46 2277.83 5202.46 2523.26 5511.79 2523.26" stroke="#505050" stroke-width="2.55649" fill="none" transform="matrix(1.00002 0 0 1 -3721.81 -962.698)"/><path d="M4893.12 2277.83C5202.46 2277.83 5202.46 2768.68 5511.79 2768.68" stroke="#505050" stroke-width="2.55649" fill="none" transform="matrix(1.00002 0 0 1 -3721.81 -962.698)"/><path d="M4893.12 2277.83C5202.46 2277.83 5202.46 3014.1 5511.79 3014.1" stroke="#505050" stroke-width="2.55649" fill="none" transform="matrix(1.00002 0 0 1 -3721.81 -962.698)"/><path d="M4893.12 2523.26C5202.46 2523.26 5202.46 1541.56 5511.79 1541.56" stroke="#505050" stroke-width="2.55649" fill="none" transform="matrix(1.00002 0 0 1 -3721.81 -962.698)"/><path d="M4893.12 2523.26C5202.46 2523.26 5202.46 1786.99 5511.79 1786.99" stroke="#505050" stroke-width="2.55649" fill="none" transform="matrix(1.00002 0 0 1 -3721.81 -962.698)"/><path d="M4893.12 2523.26C5202.46 2523.26 5202.46 2032.41 5511.79 2032.41" stroke="#505050" stroke-width="2.55649" fill="none" transform="matrix(1.00002 0 0 1 -3721.81 -962.698)"/><path d="M4893.12 2523.26C5202.46 2523.26 5202.46 2277.83 5511.79 2277.83" stroke="#505050" stroke-width="2.55649" fill="none" transform="matrix(1.00002 0 0 1 -3721.81 -962.698)"/><path d="M4893.12 2523.26C5202.46 2523.26 5202.46 2523.26 5511.79 2523.26" stroke="#505050" stroke-width="2.55649" fill="none" transform="matrix(1.00002 0 0 1 -3721.81 -962.698)"/><path d="M4893.12 2523.26C5202.46 2523.26 5202.46 2768.68 5511.79 2768.68" stroke="#505050" stroke-width="2.55649" fill="none" transform="matrix(1.00002 0 0 1 -3721.81 -962.698)"/><path d="M4893.12 2523.26C5202.46 2523.26 5202.46 3014.1 5511.79 3014.1" stroke="#505050" stroke-width="2.55649" fill="none" transform="matrix(1.00002 0 0 1 -3721.81 -962.698)"/><path d="M4274.45 2032.41C4583.79 2032.41 4583.79 2768.68 4893.12 2768.68" stroke="#505050" stroke-width="2.55649" fill="none" transform="matrix(1.00002 0 0 1 -3721.81 -962.698)"/><path d="M4274.45 2277.83C4583.79 2277.83 4583.79 2768.68 4893.12 2768.68" stroke="#505050" stroke-width="2.55649" fill="none" transform="matrix(1.00002 0 0 1 -3721.81 -962.698)"/><path d="M4274.45 2523.26C4583.79 2523.26 4583.79 2768.68 4893.12 2768.68" stroke="#505050" stroke-width="2.55649" fill="none" transform="matrix(1.00002 0 0 1 -3721.81 -962.698)"/><path d="M4893.12 2768.68C5202.46 2768.68 5202.46 1541.56 5511.79 1541.56" stroke="#505050" stroke-width="2.55649" fill="none" transform="matrix(1.00002 0 0 1 -3721.81 -962.698)"/><path d="M4893.12 2768.68C5202.46 2768.68 5202.46 1786.99 5511.79 1786.99" stroke="#505050" stroke-width="2.55649" fill="none" transform="matrix(1.00002 0 0 1 -3721.81 -962.698)"/><path d="M4893.12 2768.68C5202.46 2768.68 5202.46 2032.41 5511.79 2032.41" stroke="#505050" stroke-width="2.55649" fill="none" transform="matrix(1.00002 0 0 1 -3721.81 -962.698)"/><path d="M4893.12 2768.68C5202.46 2768.68 5202.46 2277.83 5511.79 2277.83" stroke="#505050" stroke-width="2.55649" fill="none" transform="matrix(1.00002 0 0 1 -3721.81 -962.698)"/><path d="M4893.12 2768.68C5202.46 2768.68 5202.46 2523.26 5511.79 2523.26" stroke="#505050" stroke-width="2.55649" fill="none" transform="matrix(1.00002 0 0 1 -3721.81 -962.698)"/><path d="M4893.12 2768.68C5202.46 2768.68 5202.46 2768.68 5511.79 2768.68" stroke="#505050" stroke-width="2.55649" fill="none" transform="matrix(1.00002 0 0 1 -3721.81 -962.698)"/><path d="M4893.12 2768.68C5202.46 2768.68 5202.46 3014.1 5511.79 3014.1" stroke="#505050" stroke-width="2.55649" fill="none" transform="matrix(1.00002 0 0 1 -3721.81 -962.698)"/><path d="M4274.45 2032.41C4583.79 2032.41 4583.79 3014.1 4893.12 3014.1" stroke="#505050" stroke-width="2.55649" fill="none" transform="matrix(1.00002 0 0 1 -3721.81 -962.698)"/><path d="M4274.45 2277.83C4583.79 2277.83 4583.79 3014.1 4893.12 3014.1" stroke="#505050" stroke-width="2.55649" fill="none" transform="matrix(1.00002 0 0 1 -3721.81 -962.698)"/><path d="M4274.45 2523.26C4583.79 2523.26 4583.79 3014.1 4893.12 3014.1" stroke="#505050" stroke-width="2.55649" fill="none" transform="matrix(1.00002 0 0 1 -3721.81 -962.698)"/><path d="M4893.12 3014.1C5202.46 3014.1 5202.46 1541.56 5511.79 1541.56" stroke="#505050" stroke-width="2.55649" fill="none" transform="matrix(1.00002 0 0 1 -3721.81 -962.698)"/><path d="M4893.12 3014.1C5202.46 3014.1 5202.46 1786.99 5511.79 1786.99" stroke="#505050" stroke-width="2.55649" fill="none" transform="matrix(1.00002 0 0 1 -3721.81 -962.698)"/><path d="M4893.12 3014.1C5202.46 3014.1 5202.46 2032.41 5511.79 2032.41" stroke="#505050" stroke-width="2.55649" fill="none" transform="matrix(1.00002 0 0 1 -3721.81 -962.698)"/><path d="M4893.12 3014.1C5202.46 3014.1 5202.46 2277.83 5511.79 2277.83" stroke="#505050" stroke-width="2.55649" fill="none" transform="matrix(1.00002 0 0 1 -3721.81 -962.698)"/><path d="M4893.12 3014.1C5202.46 3014.1 5202.46 2523.26 5511.79 2523.26" stroke="#505050" stroke-width="2.55649" fill="none" transform="matrix(1.00002 0 0 1 -3721.81 -962.698)"/><path d="M4893.12 3014.1C5202.46 3014.1 5202.46 2768.68 5511.79 2768.68" stroke="#505050" stroke-width="2.55649" fill="none" transform="matrix(1.00002 0 0 1 -3721.81 -962.698)"/><path d="M4893.12 3014.1C5202.46 3014.1 5202.46 3014.1 5511.79 3014.1" stroke="#505050" stroke-width="2.55649" fill="none" transform="matrix(1.00002 0 0 1 -3721.81 -962.698)"/><path d="M5511.79 1541.56C5821.13 1541.56 5821.13 2032.41 6130.47 2032.41" stroke="#505050" stroke-width="2.55649" fill="none" transform="matrix(1.00002 0 0 1 -3721.81 -962.698)"/><path d="M5511.79 1541.56C5821.13 1541.56 5821.13 2277.83 6130.47 2277.83" stroke="#505050" stroke-width="2.55649" fill="none" transform="matrix(1.00002 0 0 1 -3721.81 -962.698)"/><path d="M5511.79 1541.56C5821.13 1541.56 5821.13 2523.26 6130.47 2523.26" stroke="#505050" stroke-width="2.55649" fill="none" transform="matrix(1.00002 0 0 1 -3721.81 -962.698)"/><path d="M5511.79 1786.99C5821.13 1786.99 5821.13 2032.41 6130.47 2032.41" stroke="#505050" stroke-width="2.55649" fill="none" transform="matrix(1.00002 0 0 1 -3721.81 -962.698)"/><path d="M5511.79 1786.99C5821.13 1786.99 5821.13 2277.83 6130.47 2277.83" stroke="#505050" stroke-width="2.55649" fill="none" transform="matrix(1.00002 0 0 1 -3721.81 -962.698)"/><path d="M5511.79 1786.99C5821.13 1786.99 5821.13 2523.26 6130.47 2523.26" stroke="#505050" stroke-width="2.55649" fill="none" transform="matrix(1.00002 0 0 1 -3721.81 -962.698)"/><path d="M5511.79 2032.41C5821.13 2032.41 5821.13 2032.41 6130.47 2032.41" stroke="#505050" stroke-width="2.55649" fill="none" transform="matrix(1.00002 0 0 1 -3721.81 -962.698)"/><path d="M5511.79 2032.41C5821.13 2032.41 5821.13 2277.83 6130.47 2277.83" stroke="#505050" stroke-width="2.55649" fill="none" transform="matrix(1.00002 0 0 1 -3721.81 -962.698)"/><path d="M5511.79 2032.41C5821.13 2032.41 5821.13 2523.26 6130.47 2523.26" stroke="#505050" stroke-width="2.55649" fill="none" transform="matrix(1.00002 0 0 1 -3721.81 -962.698)"/><path d="M5511.79 2277.83C5821.13 2277.83 5821.13 2032.41 6130.47 2032.41" stroke="#505050" stroke-width="2.55649" fill="none" transform="matrix(1.00002 0 0 1 -3721.81 -962.698)"/><path d="M5511.79 2277.83C5821.13 2277.83 5821.13 2277.83 6130.47 2277.83" stroke="#505050" stroke-width="2.55649" fill="none" transform="matrix(1.00002 0 0 1 -3721.81 -962.698)"/><path d="M5511.79 2277.83C5821.13 2277.83 5821.13 2523.26 6130.47 2523.26" stroke="#505050" stroke-width="2.55649" fill="none" transform="matrix(1.00002 0 0 1 -3721.81 -962.698)"/><path d="M5511.79 2523.26C5821.13 2523.26 5821.13 2032.41 6130.47 2032.41" stroke="#505050" stroke-width="2.55649" fill="none" transform="matrix(1.00002 0 0 1 -3721.81 -962.698)"/><path d="M5511.79 2523.26C5821.13 2523.26 5821.13 2277.83 6130.47 2277.83" stroke="#505050" stroke-width="2.55649" fill="none" transform="matrix(1.00002 0 0 1 -3721.81 -962.698)"/><path d="M5511.79 2523.26C5821.13 2523.26 5821.13 2523.26 6130.47 2523.26" stroke="#505050" stroke-width="2.55649" fill="none" transform="matrix(1.00002 0 0 1 -3721.81 -962.698)"/><path d="M5511.79 2768.68C5821.13 2768.68 5821.13 2032.41 6130.47 2032.41" stroke="#505050" stroke-width="2.55649" fill="none" transform="matrix(1.00002 0 0 1 -3721.81 -962.698)"/><path d="M5511.79 2768.68C5821.13 2768.68 5821.13 2277.83 6130.47 2277.83" stroke="#505050" stroke-width="2.55649" fill="none" transform="matrix(1.00002 0 0 1 -3721.81 -962.698)"/><path d="M5511.79 2768.68C5821.13 2768.68 5821.13 2523.26 6130.47 2523.26" stroke="#505050" stroke-width="2.55649" fill="none" transform="matrix(1.00002 0 0 1 -3721.81 -962.698)"/><path d="M5511.79 3014.1C5821.13 3014.1 5821.13 2032.41 6130.47 2032.41" stroke="#505050" stroke-width="2.55649" fill="none" transform="matrix(1.00002 0 0 1 -3721.81 -962.698)"/><path d="M5511.79 3014.1C5821.13 3014.1 5821.13 2277.83 6130.47 2277.83" stroke="#505050" stroke-width="2.55649" fill="none" transform="matrix(1.00002 0 0 1 -3721.81 -962.698)"/><path d="M5511.79 3014.1C5821.13 3014.1 5821.13 2523.26 6130.47 2523.26" stroke="#505050" stroke-width="2.55649" fill="none" transform="matrix(1.00002 0 0 1 -3721.81 -962.698)"/><path d="M4346.03 2032.41C4346.03 2071.94 4313.99 2103.99 4274.45 2103.99 4234.92 2103.99 4202.87 2071.94 4202.87 2032.41 4202.87 1992.88 4234.92 1960.83 4274.45 1960.83 4313.99 1960.83 4346.03 1992.88 4346.03 2032.41Z" stroke="#333333" stroke-width="5.11298" fill="#FFFFFF" transform="matrix(1.00002 0 0 1 -3721.81 -962.698)"/><path d="M4346.03 2277.83C4346.03 2317.37 4313.99 2349.42 4274.45 2349.42 4234.92 2349.42 4202.87 2317.37 4202.87 2277.83 4202.87 2238.3 4234.92 2206.25 4274.45 2206.25 4313.99 2206.25 4346.03 2238.3 4346.03 2277.83Z" stroke="#333333" stroke-width="5.11298" fill="#FFFFFF" transform="matrix(1.00002 0 0 1 -3721.81 -962.698)"/><path d="M4346.03 2523.26C4346.03 2562.79 4313.99 2594.84 4274.45 2594.84 4234.92 2594.84 4202.87 2562.79 4202.87 2523.26 4202.87 2483.72 4234.92 2451.67 4274.45 2451.67 4313.99 2451.67 4346.03 2483.72 4346.03 2523.26Z" stroke="#333333" stroke-width="5.11298" fill="#FFFFFF" transform="matrix(1.00002 0 0 1 -3721.81 -962.698)"/><path d="M4964.71 1541.56C4964.71 1581.1 4932.66 1613.15 4893.12 1613.15 4853.59 1613.15 4821.54 1581.1 4821.54 1541.56 4821.54 1502.03 4853.59 1469.98 4893.12 1469.98 4932.66 1469.98 4964.71 1502.03 4964.71 1541.56Z" stroke="#333333" stroke-width="5.11298" fill="#FFFFFF" transform="matrix(1.00002 0 0 1 -3721.81 -962.698)"/><path d="M4964.71 1786.99C4964.71 1826.52 4932.66 1858.57 4893.12 1858.57 4853.59 1858.57 4821.54 1826.52 4821.54 1786.99 4821.54 1747.45 4853.59 1715.41 4893.12 1715.41 4932.66 1715.41 4964.71 1747.45 4964.71 1786.99Z" stroke="#333333" stroke-width="5.11298" fill="#FFFFFF" transform="matrix(1.00002 0 0 1 -3721.81 -962.698)"/><path d="M4964.71 2032.41C4964.71 2071.94 4932.66 2103.99 4893.12 2103.99 4853.59 2103.99 4821.54 2071.94 4821.54 2032.41 4821.54 1992.88 4853.59 1960.83 4893.12 1960.83 4932.66 1960.83 4964.71 1992.88 4964.71 2032.41Z" stroke="#333333" stroke-width="5.11298" fill="#FFFFFF" transform="matrix(1.00002 0 0 1 -3721.81 -962.698)"/><path d="M4964.71 2277.83C4964.71 2317.37 4932.66 2349.42 4893.12 2349.42 4853.59 2349.42 4821.54 2317.37 4821.54 2277.83 4821.54 2238.3 4853.59 2206.25 4893.12 2206.25 4932.66 2206.25 4964.71 2238.3 4964.71 2277.83Z" stroke="#333333" stroke-width="5.11298" fill="#FFFFFF" transform="matrix(1.00002 0 0 1 -3721.81 -962.698)"/><path d="M4964.71 2523.26C4964.71 2562.79 4932.66 2594.84 4893.12 2594.84 4853.59 2594.84 4821.54 2562.79 4821.54 2523.26 4821.54 2483.72 4853.59 2451.67 4893.12 2451.67 4932.66 2451.67 4964.71 2483.72 4964.71 2523.26Z" stroke="#333333" stroke-width="5.11298" fill="#FFFFFF" transform="matrix(1.00002 0 0 1 -3721.81 -962.698)"/><path d="M4964.71 2768.68C4964.71 2808.21 4932.66 2840.26 4893.12 2840.26 4853.59 2840.26 4821.54 2808.21 4821.54 2768.68 4821.54 2729.15 4853.59 2697.1 4893.12 2697.1 4932.66 2697.1 4964.71 2729.15 4964.71 2768.68Z" stroke="#333333" stroke-width="5.11298" fill="#FFFFFF" transform="matrix(1.00002 0 0 1 -3721.81 -962.698)"/><path d="M4964.71 3014.1C4964.71 3053.64 4932.66 3085.68 4893.12 3085.68 4853.59 3085.68 4821.54 3053.64 4821.54 3014.1 4821.54 2974.57 4853.59 2942.52 4893.12 2942.52 4932.66 2942.52 4964.71 2974.57 4964.71 3014.1Z" stroke="#333333" stroke-width="5.11298" fill="#FFFFFF" transform="matrix(1.00002 0 0 1 -3721.81 -962.698)"/><path d="M5583.38 1541.56C5583.38 1581.1 5551.33 1613.15 5511.79 1613.15 5472.26 1613.15 5440.21 1581.1 5440.21 1541.56 5440.21 1502.03 5472.26 1469.98 5511.79 1469.98 5551.33 1469.98 5583.38 1502.03 5583.38 1541.56Z" stroke="#333333" stroke-width="5.11298" fill="#FFFFFF" transform="matrix(1.00002 0 0 1 -3721.81 -962.698)"/><path d="M5583.38 1786.99C5583.38 1826.52 5551.33 1858.57 5511.79 1858.57 5472.26 1858.57 5440.21 1826.52 5440.21 1786.99 5440.21 1747.45 5472.26 1715.41 5511.79 1715.41 5551.33 1715.41 5583.38 1747.45 5583.38 1786.99Z" stroke="#333333" stroke-width="5.11298" fill="#FFFFFF" transform="matrix(1.00002 0 0 1 -3721.81 -962.698)"/><path d="M5583.38 2032.41C5583.38 2071.94 5551.33 2103.99 5511.79 2103.99 5472.26 2103.99 5440.21 2071.94 5440.21 2032.41 5440.21 1992.88 5472.26 1960.83 5511.79 1960.83 5551.33 1960.83 5583.38 1992.88 5583.38 2032.41Z" stroke="#333333" stroke-width="5.11298" fill="#FFFFFF" transform="matrix(1.00002 0 0 1 -3721.81 -962.698)"/><path d="M5583.38 2277.83C5583.38 2317.37 5551.33 2349.42 5511.79 2349.42 5472.26 2349.42 5440.21 2317.37 5440.21 2277.83 5440.21 2238.3 5472.26 2206.25 5511.79 2206.25 5551.33 2206.25 5583.38 2238.3 5583.38 2277.83Z" stroke="#333333" stroke-width="5.11298" fill="#FFFFFF" transform="matrix(1.00002 0 0 1 -3721.81 -962.698)"/><path d="M5583.38 2523.26C5583.38 2562.79 5551.33 2594.84 5511.79 2594.84 5472.26 2594.84 5440.21 2562.79 5440.21 2523.26 5440.21 2483.72 5472.26 2451.67 5511.79 2451.67 5551.33 2451.67 5583.38 2483.72 5583.38 2523.26Z" stroke="#333333" stroke-width="5.11298" fill="#FFFFFF" transform="matrix(1.00002 0 0 1 -3721.81 -962.698)"/><path d="M5583.38 2768.68C5583.38 2808.21 5551.33 2840.26 5511.79 2840.26 5472.26 2840.26 5440.21 2808.21 5440.21 2768.68 5440.21 2729.15 5472.26 2697.1 5511.79 2697.1 5551.33 2697.1 5583.38 2729.15 5583.38 2768.68Z" stroke="#333333" stroke-width="5.11298" fill="#FFFFFF" transform="matrix(1.00002 0 0 1 -3721.81 -962.698)"/><path d="M5583.38 3014.1C5583.38 3053.64 5551.33 3085.68 5511.79 3085.68 5472.26 3085.68 5440.21 3053.64 5440.21 3014.1 5440.21 2974.57 5472.26 2942.52 5511.79 2942.52 5551.33 2942.52 5583.38 2974.57 5583.38 3014.1Z" stroke="#333333" stroke-width="5.11298" fill="#FFFFFF" transform="matrix(1.00002 0 0 1 -3721.81 -962.698)"/><text font-family="Arial,Arial_MSFontService,sans-serif" font-weight="400" font-size="12" transform="matrix(5.11306 0 0 5.11298 373.753 2318)">Input Layer <tspan font-family="Cambria Math,Cambria Math_MSFontService,sans-serif" font-size="11" x="63" y="0">âˆˆ</tspan> <tspan font-family="Cambria Math,Cambria Math_MSFontService,sans-serif" font-size="11" x="73" y="0">â„</tspan>Â³<tspan font-size="12" x="121" y="0">Hidden Layer </tspan><tspan font-family="Cambria Math,Cambria Math_MSFontService,sans-serif" font-size="11" x="197" y="0">âˆˆ</tspan><tspan font-size="12" x="204" y="0"> </tspan><tspan font-family="Cambria Math,Cambria Math_MSFontService,sans-serif" font-size="11" x="207" y="0">â„</tspan><tspan font-size="12" x="215" y="0">â·</tspan><tspan font-size="12" x="242" y="0">Hidden Layer </tspan><tspan font-family="Cambria Math,Cambria Math_MSFontService,sans-serif" font-size="11" x="318" y="0">âˆˆ</tspan> <tspan font-family="Cambria Math,Cambria Math_MSFontService,sans-serif" font-size="11" x="328" y="0">â„</tspan>â·<tspan font-size="12" x="363" y="0">Output Layer </tspan><tspan font-family="Cambria Math,Cambria Math_MSFontService,sans-serif" font-size="11" x="435" y="0">âˆˆ</tspan><tspan font-size="12" x="442" y="0"> </tspan><tspan font-family="Cambria Math,Cambria Math_MSFontService,sans-serif" font-size="11" x="445" y="0">â„</tspan><tspan font-size="12" x="453" y="0">Â³</tspan></text><path d="M6202.05 2032.41C6202.05 2071.94 6170 2103.99 6130.47 2103.99 6090.93 2103.99 6058.88 2071.94 6058.88 2032.41 6058.88 1992.88 6090.93 1960.83 6130.47 1960.83 6170 1960.83 6202.05 1992.88 6202.05 2032.41Z" stroke="#333333" stroke-width="5.11298" fill="#FFFFFF" transform="matrix(1.00002 0 0 1 -3721.81 -962.698)"/><path d="M6202.05 2277.83C6202.05 2317.37 6170 2349.42 6130.47 2349.42 6090.93 2349.42 6058.88 2317.37 6058.88 2277.83 6058.88 2238.3 6090.93 2206.25 6130.47 2206.25 6170 2206.25 6202.05 2238.3 6202.05 2277.83Z" stroke="#333333" stroke-width="5.11298" fill="#FFFFFF" transform="matrix(1.00002 0 0 1 -3721.81 -962.698)"/><path d="M6202.05 2523.26C6202.05 2562.79 6170 2594.84 6130.47 2594.84 6090.93 2594.84 6058.88 2562.79 6058.88 2523.26 6058.88 2483.72 6090.93 2451.67 6130.47 2451.67 6170 2451.67 6202.05 2483.72 6202.05 2523.26Z" stroke="#333333" stroke-width="5.11298" fill="#FFFFFF" transform="matrix(1.00002 0 0 1 -3721.81 -962.698)"/></g></g><path d="M517.574 1037.76 544.637 1037.76 544.293 1039.26 515.856 1077.54 525.856 1077.54C526.918 1077.54 527.777 1077.45 528.434 1077.27 529.09 1077.09 529.668 1076.83 530.168 1076.47 530.668 1076.12 531.178 1075.64 531.699 1075.04 532.22 1074.43 532.746 1073.69 533.277 1072.8 533.809 1071.92 534.418 1070.68 535.106 1069.1L538.106 1069.1 535.699 1080.41 507.981 1080.41 508.293 1078.88 536.668 1040.63 527.074 1040.63C525.908 1040.63 524.981 1040.73 524.293 1040.94 523.606 1041.15 522.965 1041.52 522.371 1042.05 521.777 1042.58 521.158 1043.32 520.512 1044.27 519.866 1045.22 519.116 1046.57 518.262 1048.32L515.262 1048.32Z" fill-rule="evenodd"/><text fill="#000000" fill-opacity="0" font-family="Arial,Arial_MSFontService,sans-serif" font-size="42.6562" x="507.981" y="1075.08">ğ‘</text><path d="M586.07 1070.07C587.171 1070.07 588.051 1070.44 588.709 1071.18 589.367 1071.92 589.696 1072.91 589.696 1074.15 589.696 1074.82 589.634 1075.57 589.512 1076.4 589.39 1077.23 589.183 1078.15 588.892 1079.18 588.311 1081.27 587.852 1083.11 587.515 1084.68 587.179 1086.26 587.01 1087.42 587.01 1088.15 587.01 1089.07 587.19 1089.75 587.55 1090.2 587.909 1090.65 588.487 1090.88 589.282 1090.88 590.002 1090.88 590.77 1090.61 591.589 1090.08 592.407 1089.54 593.191 1088.85 593.941 1088 594.691 1087.15 595.36 1086.2 595.949 1085.15 596.538 1084.11 596.97 1083.07 597.246 1082.05L599.77 1070.55 604.291 1070.55 600.757 1085.53C600.573 1086.31 600.443 1087.01 600.367 1087.62 600.29 1088.23 600.252 1088.75 600.252 1089.18 600.252 1089.76 600.359 1090.18 600.573 1090.44 600.788 1090.7 601.132 1090.83 601.606 1090.83 601.897 1090.83 602.18 1090.78 602.455 1090.67 602.731 1090.57 603.025 1090.4 603.339 1090.17 603.653 1089.94 603.993 1089.65 604.36 1089.29 604.727 1088.93 605.14 1088.49 605.599 1087.99L607.183 1089.5C606.418 1090.28 605.714 1090.95 605.072 1091.51 604.429 1092.07 603.817 1092.53 603.236 1092.89 602.654 1093.25 602.077 1093.51 601.503 1093.67 600.929 1093.83 600.336 1093.91 599.724 1093.91 598.623 1093.91 597.762 1093.55 597.143 1092.84 596.523 1092.13 596.213 1091.16 596.213 1089.92 596.213 1089.6 596.236 1089.27 596.282 1088.94 596.328 1088.61 596.412 1088.29 596.534 1087.99L596.259 1087.9C594.744 1089.9 593.272 1091.4 591.841 1092.41 590.411 1093.41 588.923 1093.91 587.378 1093.91 585.756 1093.91 584.536 1093.48 583.717 1092.62 582.899 1091.77 582.49 1090.54 582.49 1088.93 582.49 1088.52 582.562 1087.94 582.708 1087.21 582.853 1086.47 583.033 1085.66 583.247 1084.75 583.461 1083.85 583.69 1082.91 583.935 1081.92 584.18 1080.93 584.41 1079.98 584.624 1079.07 584.838 1078.16 585.018 1077.34 585.163 1076.59 585.308 1075.85 585.381 1075.28 585.381 1074.86 585.381 1073.75 584.922 1073.19 584.004 1073.19 583.713 1073.19 583.43 1073.24 583.155 1073.36 582.88 1073.47 582.585 1073.65 582.271 1073.88 581.958 1074.1 581.617 1074.4 581.25 1074.75 580.883 1075.1 580.47 1075.51 580.011 1075.99L578.45 1074.49C579.277 1073.67 580.015 1072.97 580.665 1072.41 581.315 1071.84 581.931 1071.39 582.512 1071.04 583.094 1070.7 583.668 1070.45 584.234 1070.3 584.8 1070.14 585.412 1070.07 586.07 1070.07ZM550.784 1063.73 560.469 1063.73 560.217 1065.11C559.865 1065.2 559.566 1065.28 559.322 1065.34 559.077 1065.4 558.859 1065.49 558.667 1065.61 558.476 1065.74 558.312 1065.9 558.174 1066.11 558.036 1066.31 557.903 1066.6 557.772 1066.96 557.642 1067.32 557.505 1067.77 557.359 1068.31 557.214 1068.85 557.05 1069.52 556.866 1070.32L555.374 1077.07 556.017 1077.07C556.369 1077.07 556.69 1077.04 556.981 1077 557.271 1076.95 557.558 1076.87 557.841 1076.76 558.124 1076.64 558.415 1076.48 558.713 1076.28 559.012 1076.09 559.352 1075.83 559.735 1075.53 561.326 1074.29 562.657 1073.18 563.728 1072.2 564.799 1071.22 565.667 1070.36 566.333 1069.61 566.998 1068.86 567.472 1068.22 567.755 1067.69 568.038 1067.16 568.18 1066.72 568.18 1066.37 568.18 1066 568.035 1065.72 567.744 1065.51 567.453 1065.3 566.979 1065.19 566.321 1065.18L566.573 1063.73 577.015 1063.73 576.694 1065.18C576.342 1065.21 576.009 1065.28 575.696 1065.38 575.382 1065.49 575.019 1065.69 574.606 1065.97 574.193 1066.25 573.699 1066.64 573.125 1067.14 572.552 1067.64 571.829 1068.28 570.957 1069.08L562.007 1077.16 567.193 1087.94C567.591 1088.78 567.935 1089.45 568.226 1089.94 568.517 1090.43 568.815 1090.82 569.121 1091.11 569.427 1091.4 569.775 1091.61 570.165 1091.74 570.555 1091.87 571.041 1091.99 571.622 1092.1L571.255 1093.5 561.8 1093.5 562.121 1092.1C562.55 1092.07 562.871 1091.97 563.085 1091.81 563.299 1091.65 563.406 1091.45 563.406 1091.2 563.391 1091.03 563.368 1090.86 563.338 1090.67 563.307 1090.49 563.253 1090.29 563.177 1090.07 563.101 1089.84 563.001 1089.58 562.879 1089.29 562.756 1088.99 562.603 1088.63 562.42 1088.22L559.344 1081.65C559.084 1081.07 558.851 1080.61 558.645 1080.28 558.438 1079.94 558.224 1079.68 558.002 1079.5 557.78 1079.31 557.528 1079.2 557.245 1079.14 556.962 1079.09 556.606 1079.06 556.177 1079.06L554.915 1079.06C554.793 1079.69 554.648 1080.36 554.479 1081.08 554.311 1081.8 554.143 1082.53 553.974 1083.27 553.806 1084.01 553.645 1084.75 553.492 1085.46 553.339 1086.18 553.202 1086.85 553.079 1087.47 552.957 1088.09 552.857 1088.64 552.781 1089.12 552.705 1089.61 552.666 1089.98 552.666 1090.24 552.666 1090.88 552.854 1091.34 553.229 1091.6 553.603 1091.87 554.242 1092.04 555.145 1092.1L554.778 1093.5 545.116 1093.5 545.368 1092.1C545.843 1092.02 546.229 1091.93 546.527 1091.83 546.826 1091.73 547.093 1091.52 547.331 1091.19 547.568 1090.86 547.786 1090.37 547.985 1089.71 548.184 1089.05 548.413 1088.12 548.673 1086.91L552.437 1070.18C552.59 1069.51 552.705 1068.91 552.781 1068.39 552.857 1067.87 552.896 1067.43 552.896 1067.06 552.896 1066.39 552.72 1065.91 552.368 1065.62 552.016 1065.34 551.373 1065.19 550.44 1065.18Z" fill-rule="evenodd"/><text fill="#000000" fill-opacity="0" font-family="Arial,Arial_MSFontService,sans-serif" font-size="30.1782" x="545.116" y="1090.14">ğ¾ğ‘¢</text><path d="M594.258 1298.63C593.154 1298.63 591.987 1298.67 590.758 1298.76L586.758 1316.85 590.445 1316.85C593.466 1316.85 595.852 1316.44 597.602 1315.63 599.352 1314.82 600.737 1313.48 601.758 1311.63 602.779 1309.78 603.289 1307.78 603.289 1305.63 603.289 1304.73 603.206 1303.94 603.039 1303.24 602.872 1302.54 602.654 1301.96 602.383 1301.51 602.112 1301.05 601.768 1300.64 601.352 1300.29 600.935 1299.93 600.414 1299.63 599.789 1299.37 599.164 1299.1 598.44 1298.92 597.617 1298.8 596.794 1298.69 595.675 1298.63 594.258 1298.63ZM509.664 1298.6C508.748 1298.6 507.758 1298.63 506.695 1298.69L498.602 1335.66C499.206 1335.72 500.362 1335.76 502.07 1335.76 505.445 1335.76 508.31 1335.17 510.664 1333.99 513.018 1332.81 515.05 1330.97 516.758 1328.46 518.466 1325.95 519.727 1323.3 520.539 1320.52 521.352 1317.74 521.758 1314.81 521.758 1311.72 521.758 1307.37 520.742 1304.09 518.711 1301.9 516.68 1299.7 513.664 1298.6 509.664 1298.6ZM581.727 1295.88 595.633 1295.88C597.841 1295.88 599.643 1296.01 601.039 1296.27 602.435 1296.53 603.628 1296.92 604.617 1297.44 605.607 1297.96 606.435 1298.64 607.102 1299.46 607.768 1300.28 608.268 1301.21 608.602 1302.24 608.935 1303.27 609.102 1304.37 609.102 1305.54 609.102 1308.75 608.122 1311.47 606.164 1313.72 604.206 1315.97 601.32 1317.68 597.508 1318.85L597.508 1319.19C598.508 1319.94 599.315 1320.84 599.93 1321.88 600.544 1322.92 601.039 1324.37 601.414 1326.22L602.133 1329.85C602.362 1331 602.622 1332.03 602.914 1332.94 603.206 1333.86 603.555 1334.59 603.961 1335.13 604.367 1335.67 604.826 1336.08 605.336 1336.35 605.846 1336.62 606.591 1336.84 607.57 1337.01L607.258 1338.54 598.602 1338.54C597.935 1336.68 597.341 1334.47 596.82 1331.91L595.445 1325.29C595.216 1324.14 594.94 1323.18 594.617 1322.4 594.294 1321.62 593.909 1321.01 593.461 1320.58 593.013 1320.16 592.492 1319.88 591.899 1319.74 591.305 1319.6 590.581 1319.54 589.727 1319.54L586.164 1319.54 583.977 1329.44C583.789 1330.26 583.659 1330.9 583.586 1331.38 583.513 1331.86 583.451 1332.37 583.399 1332.9 583.346 1333.43 583.32 1333.9 583.32 1334.32 583.32 1334.96 583.425 1335.47 583.633 1335.83 583.841 1336.2 584.154 1336.46 584.57 1336.63 584.987 1336.8 585.706 1336.92 586.727 1337.01L586.383 1338.54 573.539 1338.54 573.883 1337.01C574.675 1336.88 575.268 1336.68 575.664 1336.4 576.06 1336.12 576.393 1335.72 576.664 1335.22 576.935 1334.72 577.185 1334.12 577.414 1333.4 577.643 1332.68 577.987 1331.29 578.445 1329.22L583.758 1305.16C584.216 1303.08 584.445 1301.43 584.445 1300.22 584.445 1299.2 584.206 1298.5 583.727 1298.1 583.247 1297.7 582.466 1297.47 581.383 1297.41ZM542.727 1295.88 570.914 1295.88 568.758 1305.47 565.758 1305.47C565.675 1303.87 565.544 1302.6 565.367 1301.68 565.19 1300.75 564.94 1300.08 564.617 1299.68 564.294 1299.27 563.904 1299 563.445 1298.85 562.987 1298.7 562.3 1298.63 561.383 1298.63L551.758 1298.63 548.039 1315.63 553.883 1315.63C554.8 1315.63 555.56 1315.51 556.164 1315.26 556.768 1315.01 557.331 1314.55 557.852 1313.9 558.372 1313.24 559.018 1312.12 559.789 1310.54L562.633 1310.54 559.602 1323.72 556.852 1323.72C556.852 1321.62 556.784 1320.3 556.649 1319.77 556.513 1319.24 556.253 1318.88 555.867 1318.68 555.482 1318.48 554.716 1318.38 553.57 1318.38L547.445 1318.38 544.977 1329.44C544.539 1331.4 544.32 1333.03 544.32 1334.32 544.32 1334.96 544.425 1335.47 544.633 1335.83 544.841 1336.2 545.154 1336.46 545.57 1336.63 545.987 1336.8 546.706 1336.92 547.727 1337.01L547.383 1338.54 534.539 1338.54 534.883 1337.01C535.675 1336.88 536.268 1336.68 536.664 1336.4 537.06 1336.12 537.393 1335.72 537.664 1335.22 537.935 1334.72 538.185 1334.12 538.414 1333.4 538.643 1332.68 538.987 1331.29 539.445 1329.22L544.758 1305.16C545.216 1303.08 545.445 1301.43 545.445 1300.22 545.445 1299.2 545.206 1298.5 544.727 1298.1 544.247 1297.7 543.466 1297.47 542.383 1297.41ZM497.727 1295.88 509.57 1295.88C512.716 1295.88 515.268 1296.12 517.227 1296.6 519.185 1297.08 521.013 1297.94 522.711 1299.19 524.409 1300.44 525.685 1302.1 526.539 1304.18 527.393 1306.25 527.82 1308.7 527.82 1311.54 527.82 1314.35 527.497 1317.04 526.852 1319.6 526.206 1322.16 525.279 1324.52 524.07 1326.68 522.862 1328.83 521.414 1330.71 519.727 1332.3 518.039 1333.9 516.404 1335.12 514.82 1335.97 513.237 1336.83 511.466 1337.47 509.508 1337.9 507.55 1338.32 505.268 1338.54 502.664 1338.54L489.539 1338.54 489.883 1337.01C490.675 1336.88 491.268 1336.68 491.664 1336.4 492.06 1336.12 492.393 1335.72 492.664 1335.22 492.935 1334.72 493.185 1334.12 493.414 1333.4 493.643 1332.68 493.987 1331.29 494.445 1329.22L499.758 1305.16C500.216 1303.08 500.445 1301.4 500.445 1300.13 500.445 1299.15 500.201 1298.47 499.711 1298.08 499.221 1297.7 498.445 1297.47 497.383 1297.41Z" fill-rule="evenodd"/><text fill="#000000" fill-opacity="0" font-family="Arial,Arial_MSFontService,sans-serif" font-size="42.6562" x="489.539" y="1333.2">ğ·ğ¹ğ‘…</text><text font-family="Arial,Arial_MSFontService,sans-serif" font-weight="400" font-size="83" transform="matrix(1 0 0 1 1194.63 458)">Hidden layers</text><path d="M2389.32 1298.6C2388.4 1298.6 2387.41 1298.63 2386.35 1298.69L2378.25 1335.66C2378.86 1335.72 2380.01 1335.76 2381.72 1335.76 2385.1 1335.76 2387.96 1335.17 2390.32 1333.99 2392.67 1332.81 2394.7 1330.97 2396.41 1328.46 2398.12 1325.95 2399.38 1323.3 2400.19 1320.52 2401 1317.74 2401.41 1314.81 2401.41 1311.72 2401.41 1307.37 2400.39 1304.09 2398.36 1301.9 2396.33 1299.7 2393.32 1298.6 2389.32 1298.6ZM2377.38 1295.88 2389.22 1295.88C2392.37 1295.88 2394.92 1296.12 2396.88 1296.6 2398.84 1297.08 2400.66 1297.94 2402.36 1299.19 2404.06 1300.44 2405.34 1302.11 2406.19 1304.18 2407.04 1306.25 2407.47 1308.7 2407.47 1311.54 2407.47 1314.35 2407.15 1317.04 2406.5 1319.6 2405.86 1322.16 2404.93 1324.52 2403.72 1326.68 2402.51 1328.83 2401.07 1330.71 2399.38 1332.3 2397.69 1333.9 2396.05 1335.12 2394.47 1335.97 2392.89 1336.83 2391.12 1337.47 2389.16 1337.9 2387.2 1338.32 2384.92 1338.54 2382.32 1338.54L2369.19 1338.54 2369.53 1337.01C2370.33 1336.88 2370.92 1336.68 2371.32 1336.4 2371.71 1336.12 2372.04 1335.72 2372.32 1335.22 2372.59 1334.72 2372.84 1334.12 2373.07 1333.4 2373.29 1332.68 2373.64 1331.29 2374.1 1329.22L2379.41 1305.16C2379.87 1303.08 2380.1 1301.4 2380.1 1300.13 2380.1 1299.15 2379.85 1298.47 2379.36 1298.08 2378.87 1297.7 2378.1 1297.47 2377.03 1297.41Z" fill-rule="evenodd"/><text fill="#000000" fill-opacity="0" font-family="Arial,Arial_MSFontService,sans-serif" font-size="42.6562" x="2369.19" y="1333.21">ğ·</text><path d="M2416.69 1328.19C2417.82 1328.19 2418.7 1328.56 2419.32 1329.3 2419.94 1330.05 2420.25 1331.02 2420.25 1332.23 2420.25 1332.57 2420.23 1332.9 2420.18 1333.22 2420.13 1333.54 2420.05 1333.85 2419.93 1334.16L2420.2 1334.27C2421.66 1332.24 2423.11 1330.72 2424.56 1329.71 2426.02 1328.7 2427.51 1328.19 2429.04 1328.19 2430.66 1328.19 2431.87 1328.61 2432.68 1329.44 2433.48 1330.28 2433.88 1331.5 2433.88 1333.13 2433.88 1333.26 2433.88 1333.4 2433.88 1333.53 2433.88 1333.66 2433.86 1333.79 2433.83 1333.93L2433.93 1333.93C2435.35 1331.99 2436.76 1330.54 2438.17 1329.6 2439.58 1328.66 2441.05 1328.19 2442.58 1328.19 2444.2 1328.19 2445.41 1328.63 2446.22 1329.5 2447.02 1330.37 2447.42 1331.6 2447.42 1333.17 2447.42 1333.65 2447.34 1334.28 2447.19 1335.09 2447.04 1335.89 2446.85 1336.77 2446.63 1337.74 2446.41 1338.7 2446.17 1339.7 2445.91 1340.73 2445.65 1341.77 2445.4 1342.74 2445.17 1343.66 2445.03 1344.26 2444.92 1344.74 2444.84 1345.12 2444.75 1345.49 2444.69 1345.81 2444.64 1346.06 2444.6 1346.31 2444.57 1346.53 2444.55 1346.71 2444.54 1346.9 2444.53 1347.09 2444.53 1347.31 2444.53 1347.89 2444.64 1348.31 2444.85 1348.57 2445.06 1348.83 2445.41 1348.96 2445.88 1348.96 2446.16 1348.96 2446.43 1348.91 2446.71 1348.8 2446.98 1348.69 2447.28 1348.52 2447.59 1348.3 2447.91 1348.07 2448.25 1347.77 2448.63 1347.41 2449 1347.05 2449.42 1346.62 2449.88 1346.11L2451.46 1347.63C2450.73 1348.39 2450.04 1349.05 2449.41 1349.6 2448.77 1350.15 2448.16 1350.61 2447.57 1350.97 2446.98 1351.33 2446.4 1351.6 2445.81 1351.77 2445.23 1351.95 2444.62 1352.04 2443.98 1352.04 2443.4 1352.04 2442.87 1351.93 2442.39 1351.71 2441.92 1351.5 2441.52 1351.21 2441.19 1350.83 2440.86 1350.46 2440.6 1350.01 2440.42 1349.5 2440.24 1348.99 2440.15 1348.43 2440.15 1347.81 2440.15 1346.56 2440.41 1344.94 2440.95 1342.97 2441.24 1341.98 2441.5 1341.02 2441.74 1340.11 2441.98 1339.2 2442.18 1338.36 2442.35 1337.59 2442.52 1336.82 2442.65 1336.13 2442.75 1335.52 2442.85 1334.92 2442.9 1334.42 2442.9 1334.02 2442.9 1333.07 2442.72 1332.38 2442.36 1331.93 2442 1331.49 2441.44 1331.27 2440.67 1331.27 2440.2 1331.27 2439.69 1331.39 2439.16 1331.63 2438.62 1331.88 2438.08 1332.22 2437.54 1332.66 2437 1333.09 2436.47 1333.61 2435.95 1334.2 2435.43 1334.8 2434.94 1335.45 2434.5 1336.14 2434.06 1336.84 2433.66 1337.57 2433.32 1338.34 2432.97 1339.1 2432.71 1339.87 2432.53 1340.65L2430.25 1351.62 2425.78 1351.62C2425.99 1350.64 2426.23 1349.59 2426.5 1348.47 2426.77 1347.34 2427.04 1346.21 2427.32 1345.06 2427.59 1343.91 2427.86 1342.78 2428.11 1341.66 2428.36 1340.55 2428.59 1339.5 2428.79 1338.53 2428.98 1337.56 2429.15 1336.69 2429.27 1335.91 2429.39 1335.14 2429.45 1334.53 2429.45 1334.07 2429.45 1333.1 2429.26 1332.4 2428.89 1331.94 2428.51 1331.49 2427.91 1331.27 2427.09 1331.27 2426.35 1331.27 2425.57 1331.54 2424.72 1332.09 2423.88 1332.64 2423.08 1333.37 2422.33 1334.26 2421.57 1335.16 2420.89 1336.17 2420.29 1337.29 2419.7 1338.42 2419.28 1339.55 2419.03 1340.7L2416.69 1351.62 2412.19 1351.62 2415.64 1336.66C2415.83 1335.83 2415.98 1335.11 2416.07 1334.5 2416.16 1333.89 2416.21 1333.39 2416.21 1332.99 2416.21 1331.87 2415.76 1331.31 2414.86 1331.31 2414.58 1331.31 2414.3 1331.37 2414.02 1331.48 2413.73 1331.6 2413.44 1331.77 2413.12 1332 2412.81 1332.23 2412.47 1332.52 2412.1 1332.87 2411.73 1333.23 2411.32 1333.64 2410.86 1334.11L2409.28 1332.62C2410.03 1331.86 2410.72 1331.19 2411.36 1330.64 2411.99 1330.08 2412.6 1329.62 2413.19 1329.26 2413.78 1328.9 2414.36 1328.63 2414.92 1328.46 2415.49 1328.28 2416.08 1328.19 2416.69 1328.19Z" fill-rule="evenodd"/><text fill="#000000" fill-opacity="0" font-family="Arial,Arial_MSFontService,sans-serif" font-size="23.8442" x="2409.28" y="1349.06">ğ‘š</text><path d="M2379.27 1045.43 2389.24 1045.43 2397.49 1069.78C2398.68 1073.28 2399.59 1076.24 2400.24 1078.65L2400.58 1078.65C2400.75 1077.38 2401.13 1075.27 2401.72 1072.31 2402.32 1069.35 2402.86 1066.77 2403.36 1064.56L2405.55 1054.72C2406.01 1052.65 2406.24 1050.98 2406.24 1049.68 2406.24 1048.71 2405.99 1048.02 2405.5 1047.64 2405.01 1047.25 2404.24 1047.03 2403.18 1046.97L2403.52 1045.43 2414.46 1045.43 2414.11 1046.97C2413.32 1047.13 2412.75 1047.32 2412.41 1047.53 2412.07 1047.74 2411.76 1048.05 2411.49 1048.47 2411.22 1048.88 2410.94 1049.53 2410.64 1050.42 2410.35 1051.3 2409.99 1052.75 2409.55 1054.75L2402.21 1088.09 2397.96 1088.09 2388.83 1061.28C2387.73 1058.07 2386.76 1054.87 2385.93 1051.68L2385.52 1051.68C2385.39 1052.75 2385.05 1054.77 2384.49 1057.76 2383.93 1060.75 2383.33 1063.67 2382.71 1066.53L2379.96 1079C2379.52 1080.98 2379.3 1082.6 2379.3 1083.87 2379.3 1084.81 2379.54 1085.47 2380 1085.86 2380.47 1086.24 2381.26 1086.48 2382.36 1086.56L2382.02 1088.09 2371.08 1088.09 2371.43 1086.56C2372.22 1086.43 2372.81 1086.23 2373.21 1085.95 2373.6 1085.67 2373.94 1085.28 2374.21 1084.78 2374.48 1084.28 2374.73 1083.67 2374.96 1082.95 2375.19 1082.23 2375.53 1080.84 2375.99 1078.78L2381.3 1054.72C2381.51 1053.82 2381.68 1052.97 2381.8 1052.15 2381.93 1051.34 2381.99 1050.52 2381.99 1049.68 2381.99 1048.71 2381.74 1048.02 2381.25 1047.64 2380.76 1047.25 2379.99 1047.03 2378.93 1046.97Z" fill-rule="evenodd"/><text fill="#000000" fill-opacity="0" font-family="Arial,Arial_MSFontService,sans-serif" font-size="42.6562" x="2371.08" y="1082.76">ğ‘</text><path d="M2412.75 1078.23 2419.38 1078.23 2421.17 1096.86C2422.15 1095.35 2423.01 1093.98 2423.76 1092.75 2424.51 1091.53 2425.17 1090.41 2425.74 1089.38 2426.3 1088.36 2426.79 1087.41 2427.21 1086.53 2427.62 1085.66 2427.97 1084.83 2428.25 1084.03 2428.53 1083.24 2428.77 1082.46 2428.96 1081.69 2429.15 1080.93 2429.32 1080.14 2429.45 1079.33L2429.73 1078.23 2433.4 1078.23 2435.4 1096.86C2437.92 1093.42 2439.83 1090.41 2441.12 1087.83 2442.42 1085.25 2443.06 1083.19 2443.06 1081.65 2443.06 1080.97 2442.9 1080.5 2442.58 1080.22 2442.26 1079.95 2441.68 1079.77 2440.84 1079.7L2441.11 1078.23 2447.58 1078.23 2448.39 1079.56C2447.74 1081.23 2447.04 1082.87 2446.26 1084.49 2445.49 1086.11 2444.59 1087.8 2443.54 1089.55 2442.5 1091.3 2441.29 1093.16 2439.9 1095.12 2438.5 1097.08 2436.87 1099.22 2434.98 1101.54L2432.05 1101.54 2430.19 1085.62C2429.18 1087.94 2427.91 1090.42 2426.37 1093.05 2424.83 1095.68 2423.02 1098.51 2420.94 1101.54L2417.59 1101.54 2415.43 1084.22C2415.31 1083.3 2415.2 1082.56 2415.11 1082 2415.02 1081.44 2414.88 1081.01 2414.69 1080.69 2414.5 1080.38 2414.22 1080.15 2413.87 1080.02 2413.52 1079.88 2413.03 1079.77 2412.4 1079.7Z" fill-rule="evenodd"/><text fill="#000000" fill-opacity="0" font-family="Arial,Arial_MSFontService,sans-serif" font-size="23.3164" x="2412.4" y="1098.63">ğ‘¤</text><path d="M524.711 1532.89 526.524 1532.89 520.399 1560.17 521.399 1560.17C522.961 1560.17 524.716 1559.48 526.664 1558.12 528.612 1556.75 530.169 1555.49 531.336 1554.32 532.503 1553.16 533.086 1552.03 533.086 1550.95 533.086 1549.93 532.378 1549.35 530.961 1549.23L531.305 1547.7 541.43 1547.7 542.024 1549.23C540.294 1550.79 538.461 1552.32 536.524 1553.82L528.774 1559.82 531.836 1571.1C532.086 1572.06 532.31 1572.75 532.508 1573.18 532.706 1573.61 532.935 1573.93 533.195 1574.14 533.456 1574.34 533.805 1574.45 534.242 1574.45 534.784 1574.45 535.43 1574.16 536.18 1573.57 536.93 1572.99 537.784 1572.15 538.742 1571.04L540.524 1572.79C538.649 1574.77 537.097 1576.15 535.867 1576.92 534.638 1577.69 533.451 1578.07 532.305 1578.07 530.888 1578.07 529.763 1577.67 528.93 1576.87 528.097 1576.07 527.44 1574.73 526.961 1572.85L524.899 1564.73C524.69 1563.92 524.482 1563.35 524.274 1563.04 524.065 1562.73 523.826 1562.52 523.555 1562.42 523.284 1562.31 522.805 1562.26 522.117 1562.26L519.961 1562.26 516.711 1577.57 511.305 1577.57 519.336 1541.85C519.607 1540.65 519.8 1539.7 519.914 1539.03 520.029 1538.35 520.086 1537.75 520.086 1537.23 520.086 1536.35 519.82 1535.74 519.289 1535.39 518.758 1535.03 517.805 1534.83 516.43 1534.79L516.805 1533.17Z" fill-rule="evenodd"/><text fill="#000000" fill-opacity="0" font-family="Arial,Arial_MSFontService,sans-serif" font-size="45.1875" x="511.305" y="1572.42">ğ‘˜</text><path d="M594.13 1569.5C593.227 1569.5 592.386 1569.7 591.605 1570.1 590.825 1570.49 590.114 1571.04 589.471 1571.72 588.829 1572.41 588.259 1573.21 587.761 1574.11 587.264 1575.01 586.844 1575.97 586.499 1576.98 586.155 1577.99 585.895 1579.03 585.719 1580.09 585.543 1581.15 585.455 1582.17 585.455 1583.15 585.455 1584.81 585.688 1586.03 586.155 1586.84 586.622 1587.64 587.375 1588.04 588.416 1588.04 588.936 1588.04 589.437 1587.95 589.919 1587.77 590.401 1587.58 590.909 1587.29 591.445 1586.89 592.791 1585.84 593.939 1584.55 594.887 1583.04 595.836 1581.52 596.547 1579.73 597.021 1577.67 597.236 1576.72 597.404 1575.86 597.526 1575.1 597.649 1574.33 597.71 1573.61 597.71 1572.92 597.71 1571.69 597.423 1570.82 596.849 1570.29 596.276 1569.76 595.369 1569.5 594.13 1569.5ZM593.717 1567.23C594.925 1567.23 595.993 1567.37 596.918 1567.65 597.844 1567.93 598.689 1568.32 599.454 1568.81L601.68 1567.23 603.539 1567.71 600.074 1582.74C599.875 1583.6 599.737 1584.3 599.661 1584.86 599.584 1585.42 599.546 1585.92 599.546 1586.34 599.546 1586.92 599.664 1587.35 599.902 1587.61 600.139 1587.87 600.479 1588 600.923 1588 601.198 1588 601.47 1587.94 601.738 1587.84 602.005 1587.73 602.296 1587.56 602.61 1587.33 602.923 1587.1 603.268 1586.81 603.642 1586.45 604.017 1586.09 604.442 1585.66 604.916 1585.15 605.161 1585.41 605.413 1585.67 605.673 1585.92 605.933 1586.17 606.186 1586.42 606.431 1586.66 605.666 1587.45 604.97 1588.11 604.342 1588.67 603.715 1589.23 603.107 1589.69 602.518 1590.05 601.929 1590.41 601.351 1590.67 600.785 1590.83 600.219 1590.99 599.63 1591.07 599.018 1591.07 597.917 1591.07 597.06 1590.72 596.448 1590 595.836 1589.29 595.53 1588.32 595.53 1587.08 595.53 1586.39 595.637 1585.73 595.851 1585.1L595.53 1584.97C594.75 1586.05 593.992 1586.98 593.258 1587.74 592.523 1588.51 591.797 1589.14 591.078 1589.64 590.359 1590.13 589.632 1590.5 588.897 1590.73 588.163 1590.96 587.398 1591.07 586.603 1591.07 584.782 1591.07 583.374 1590.42 582.38 1589.11 581.385 1587.8 580.888 1585.9 580.888 1583.41 580.888 1581.92 581.045 1580.5 581.359 1579.13 581.672 1577.76 582.116 1576.47 582.69 1575.27 583.263 1574.07 583.948 1572.98 584.744 1571.99 585.539 1571 586.411 1570.16 587.36 1569.45 588.308 1568.75 589.318 1568.2 590.389 1567.81 591.46 1567.42 592.569 1567.23 593.717 1567.23ZM551.134 1560.89 560.818 1560.89 560.566 1562.27C560.214 1562.36 559.916 1562.44 559.671 1562.5 559.426 1562.56 559.208 1562.65 559.017 1562.77 558.826 1562.9 558.661 1563.06 558.523 1563.27 558.386 1563.47 558.252 1563.76 558.122 1564.12 557.992 1564.48 557.854 1564.93 557.709 1565.47 557.563 1566.01 557.399 1566.68 557.215 1567.48L555.724 1574.23 556.366 1574.23C556.718 1574.23 557.039 1574.2 557.33 1574.16 557.621 1574.11 557.908 1574.03 558.191 1573.92 558.474 1573.8 558.764 1573.64 559.063 1573.45 559.361 1573.25 559.701 1572.99 560.084 1572.69 561.675 1571.45 563.006 1570.34 564.077 1569.36 565.148 1568.38 566.016 1567.52 566.682 1566.77 567.347 1566.02 567.822 1565.38 568.105 1564.85 568.388 1564.32 568.529 1563.88 568.529 1563.53 568.529 1563.16 568.384 1562.88 568.093 1562.67 567.803 1562.46 567.328 1562.35 566.67 1562.34L566.923 1560.89 577.365 1560.89 577.043 1562.34C576.692 1562.37 576.359 1562.44 576.045 1562.55 575.732 1562.65 575.368 1562.85 574.955 1563.13 574.542 1563.41 574.049 1563.8 573.475 1564.3 572.901 1564.8 572.178 1565.44 571.306 1566.24L562.356 1574.32 567.542 1585.1C567.94 1585.95 568.284 1586.61 568.575 1587.1 568.866 1587.59 569.164 1587.98 569.47 1588.27 569.776 1588.56 570.124 1588.77 570.514 1588.9 570.905 1589.03 571.39 1589.15 571.972 1589.26L571.604 1590.66 562.149 1590.66 562.471 1589.26C562.899 1589.23 563.22 1589.13 563.435 1588.97 563.649 1588.81 563.756 1588.61 563.756 1588.36 563.741 1588.19 563.718 1588.02 563.687 1587.84 563.656 1587.65 563.603 1587.45 563.526 1587.23 563.45 1587.01 563.35 1586.75 563.228 1586.45 563.106 1586.15 562.953 1585.79 562.769 1585.38L559.694 1578.82C559.434 1578.23 559.2 1577.78 558.994 1577.44 558.787 1577.1 558.573 1576.84 558.351 1576.66 558.129 1576.48 557.877 1576.36 557.594 1576.3 557.311 1576.25 556.955 1576.22 556.527 1576.22L555.265 1576.22C555.142 1576.85 554.997 1577.52 554.829 1578.24 554.66 1578.96 554.492 1579.69 554.324 1580.43 554.155 1581.18 553.995 1581.91 553.842 1582.63 553.689 1583.34 553.551 1584.01 553.429 1584.63 553.306 1585.25 553.207 1585.8 553.13 1586.29 553.054 1586.77 553.016 1587.14 553.016 1587.4 553.016 1588.04 553.203 1588.5 553.578 1588.76 553.953 1589.03 554.591 1589.2 555.494 1589.26L555.127 1590.66 545.465 1590.66 545.718 1589.26C546.192 1589.18 546.578 1589.09 546.877 1588.99 547.175 1588.89 547.443 1588.68 547.68 1588.35 547.917 1588.02 548.135 1587.53 548.334 1586.87 548.533 1586.21 548.762 1585.28 549.022 1584.07L552.786 1567.34C552.939 1566.67 553.054 1566.07 553.13 1565.55 553.207 1565.03 553.245 1564.59 553.245 1564.22 553.245 1563.55 553.069 1563.07 552.717 1562.79 552.365 1562.5 551.723 1562.35 550.79 1562.34Z" fill-rule="evenodd"/><text fill="#000000" fill-opacity="0" font-family="Arial,Arial_MSFontService,sans-serif" font-size="30.1782" x="545.465" y="1587.3">ğ¾ğ‘</text><path d="M2400.86 1551.28 2406.11 1551.28 2402.27 1568.31C2401.95 1569.68 2401.71 1570.88 2401.53 1571.89 2401.35 1572.9 2401.27 1573.82 2401.27 1574.65 2401.27 1575.74 2401.55 1576.56 2402.13 1577.12 2402.7 1577.68 2403.52 1577.96 2404.58 1577.96 2405.81 1577.96 2407.15 1577.31 2408.59 1576 2410.04 1574.68 2411.34 1573.04 2412.49 1571.06 2413.63 1569.08 2414.37 1567.33 2414.7 1565.81L2417.8 1551.28 2423.2 1551.28 2418.77 1571.06C2418.29 1573.2 2418.05 1574.75 2418.05 1575.68 2418.05 1576.52 2418.18 1577.12 2418.45 1577.5 2418.72 1577.87 2419.15 1578.06 2419.74 1578.06 2420.21 1578.06 2420.79 1577.87 2421.47 1577.5 2422.15 1577.12 2422.9 1576.46 2423.74 1575.53L2425.49 1577.28C2424.32 1578.42 2423.28 1579.31 2422.38 1579.93 2421.47 1580.56 2420.64 1581 2419.89 1581.26 2419.14 1581.52 2418.33 1581.65 2417.45 1581.65 2416.1 1581.65 2415.05 1581.25 2414.3 1580.45 2413.55 1579.65 2413.17 1578.53 2413.17 1577.09 2413.17 1575.92 2413.44 1574.67 2413.99 1573.34L2413.64 1573.15C2411.7 1576.03 2409.91 1578.12 2408.27 1579.42 2406.62 1580.72 2404.92 1581.37 2403.17 1581.37 2402.3 1581.37 2401.5 1581.23 2400.78 1580.95 2400.06 1580.67 2399.32 1580.13 2398.55 1579.34 2398.3 1580.59 2398.07 1582.27 2397.88 1584.39 2397.68 1586.5 2397.58 1588.4 2397.58 1590.09 2397.58 1590.71 2397.6 1591.21 2397.64 1591.59L2397.2 1593.68 2393.14 1593.68 2391.61 1591.81C2392.55 1588.35 2393.42 1584.8 2394.24 1581.15Z" fill-rule="evenodd"/><text fill="#000000" fill-opacity="0" font-family="Arial,Arial_MSFontService,sans-serif" font-size="42.4062" x="2391.61" y="1588.38">ğœ‡</text><rect x="1401.5" y="524.5" width="142" height="1540" stroke="#FFFFFF" stroke-width="4.58333" stroke-miterlimit="8" fill="#FFFFFF"/><rect x="1453.5" y="1581.5" width="36.0001" height="40.9999" stroke="#000000" stroke-width="4.58333" stroke-miterlimit="8"/><rect x="1454.5" y="1794.5" width="35.0001" height="41.0002" stroke="#000000" stroke-width="4.58333" stroke-miterlimit="8"/><rect x="1453.5" y="1996.5" width="36.0001" height="41.9999" stroke="#000000" stroke-width="4.58333" stroke-miterlimit="8"/><rect x="1453.5" y="962.5" width="36.0001" height="41.9999" stroke="#000000" stroke-width="4.58333" stroke-miterlimit="8"/><rect x="1454.5" y="1176.5" width="35.0001" height="40.9999" stroke="#000000" stroke-width="4.58333" stroke-miterlimit="8"/><rect x="1453.5" y="1378.5" width="36.0001" height="40.9999" stroke="#000000" stroke-width="4.58333" stroke-miterlimit="8"/><rect x="1455.5" y="548.5" width="36.0001" height="40.9999" stroke="#000000" stroke-width="4.58333" stroke-miterlimit="8"/><rect x="1456.5" y="761.5" width="35.0001" height="41.0002" stroke="#000000" stroke-width="4.58333" stroke-miterlimit="8"/><rect x="1713.5" y="1231.5" width="150" height="158" stroke="#FFFFFF" stroke-width="4.58333" stroke-miterlimit="8" fill="#FFFFFF"/><rect x="1766.5" y="1284.5" width="43" height="40.9999" stroke="#000000" stroke-width="4.58333" stroke-miterlimit="8"/><rect x="1712.5" y="1481.5" width="150" height="159" stroke="#FFFFFF" stroke-width="4.58333" stroke-miterlimit="8" fill="#FFFFFF"/><rect x="1765.5" y="1534.5" width="43" height="41.9999" stroke="#000000" stroke-width="4.58333" stroke-miterlimit="8"/><rect x="1712.5" y="1731.5" width="150" height="158" stroke="#FFFFFF" stroke-width="4.58333" stroke-miterlimit="8" fill="#FFFFFF"/><rect x="1765.5" y="1784.5" width="43" height="41.0002" stroke="#000000" stroke-width="4.58333" stroke-miterlimit="8"/><rect x="1095.5" y="1233.5" width="150" height="158" stroke="#FFFFFF" stroke-width="4.58333" stroke-miterlimit="8" fill="#FFFFFF"/><rect x="1148.5" y="1286.5" width="43" height="40.9999" stroke="#000000" stroke-width="4.58333" stroke-miterlimit="8"/><rect x="1095.5" y="1483.5" width="150" height="159" stroke="#FFFFFF" stroke-width="4.58333" stroke-miterlimit="8" fill="#FFFFFF"/><rect x="1147.5" y="1536.5" width="43" height="40.9999" stroke="#000000" stroke-width="4.58333" stroke-miterlimit="8"/><rect x="1095.5" y="1733.5" width="150" height="158" stroke="#FFFFFF" stroke-width="4.58333" stroke-miterlimit="8" fill="#FFFFFF"/><rect x="1147.5" y="1786.5" width="43" height="40.9999" stroke="#000000" stroke-width="4.58333" stroke-miterlimit="8"/><rect x="858.5" y="493.5" width="1248" height="1642" stroke="#2F528F" stroke-width="4.58333" stroke-miterlimit="8" fill="#4472C4" fill-opacity="0.219608"/></g></svg>